<?xml version="1.0" standalone="no"?>
<!DOCTYPE svg PUBLIC "-//W3C//DTD SVG 20010904//EN"
 "http://www.w3.org/TR/2001/REC-SVG-20010904/DTD/svg10.dtd">
<svg version="1.0" xmlns="http://www.w3.org/2000/svg"
 width="111.000000pt" height="111.000000pt" viewBox="0 0 111.000000 111.000000"
 preserveAspectRatio="xMidYMid meet">
<metadata>
Created by potrace 1.14, written by Peter Selinger 2001-2017
</metadata>
<g transform="translate(0.000000,111.000000) scale(0.100000,-0.100000)"
fill="#000000" stroke="none">
<path d="M545 939 c-4 -6 -13 -8 -20 -5 -8 3 -19 -3 -26 -12 -11 -14 -11 -15
0 -5 7 6 19 9 26 7 6 -3 18 2 25 11 7 8 10 15 7 15 -3 0 -9 -5 -12 -11z"/>
<path d="M570 932 c0 -6 4 -13 8 -16 5 -3 7 -18 4 -34 -2 -17 1 -33 9 -37 9
-6 11 0 6 25 -6 30 -6 31 11 19 9 -7 6 0 -8 16 -14 17 -26 32 -27 34 -2 2 -3
-1 -3 -7z"/>
<path d="M537 878 c-27 -53 -88 -133 -99 -130 -5 1 -7 -2 -3 -8 6 -10 -21 -27
-30 -18 -2 2 6 18 17 37 12 18 24 28 27 22 4 -6 12 -2 20 10 10 17 10 20 -1
13 -13 -8 -48 -13 -48 -7 0 3 48 25 60 27 29 6 42 73 14 73 -6 0 -9 -8 -7 -18
7 -24 -42 -56 -60 -40 -11 8 -19 4 -38 -17 -19 -21 -19 -23 -3 -9 21 17 22 17
27 -10 6 -28 -17 -73 -41 -81 -17 -5 -15 23 3 38 13 10 13 15 3 21 -14 9 -41
-9 -32 -22 3 -5 0 -9 -6 -9 -6 0 -8 -6 -4 -12 4 -7 4 -10 -1 -6 -4 4 -16 3
-26 -2 -14 -8 -28 -2 -66 32 -39 33 -48 48 -49 75 -1 18 3 36 7 39 5 3 9 9 9
15 0 12 -37 12 -45 -1 -3 -5 -17 -10 -30 -10 -34 0 -58 -27 -50 -58 5 -19 -1
-32 -21 -53 -25 -26 -27 -36 -28 -111 -1 -56 -7 -94 -19 -117 -13 -26 -14 -36
-5 -42 7 -4 16 -5 22 -2 5 4 73 6 150 5 77 0 160 3 183 7 23 5 45 6 49 2 3 -3
11 -6 17 -6 7 0 12 -7 12 -15 0 -20 34 -25 41 -6 3 9 10 16 16 16 5 0 6 -5 2
-12 -4 -6 -3 -8 3 -5 14 9 14 66 0 63 -7 -1 -9 -1 -4 1 4 3 4 10 1 15 -5 7 -2
8 7 2 18 -11 59 -13 53 -2 -3 5 -13 7 -22 6 -9 -2 -17 3 -18 10 -1 6 -2 17 -3
23 0 5 -5 8 -10 5 -5 -3 -12 6 -16 22 -5 20 -2 29 11 37 19 11 40 31 67 65 14
17 17 32 13 64 -5 41 -25 116 -30 116 -1 0 -10 -15 -19 -32z m26 -85 c9 -8
-25 -33 -36 -26 -4 3 -3 11 4 19 13 15 22 18 32 7z m-40 -83 c-5 -20 -21 -36
-28 -28 -5 4 23 48 30 48 2 0 1 -9 -2 -20z m-23 -185 c0 -12 -19 -12 -23 0 -4
9 -1 12 9 8 7 -3 14 -7 14 -8z"/>
<path d="M623 820 c-3 -11 -9 -20 -13 -20 -5 0 -7 -12 -5 -27 2 -16 4 -35 4
-43 1 -13 2 -13 11 0 17 27 21 2 5 -31 -16 -30 -16 -32 0 -25 9 3 18 6 20 6 2
0 17 20 33 44 l30 45 -29 10 c-33 11 -40 26 -9 18 11 -3 20 0 20 5 0 6 8 5 18
-3 9 -7 6 -1 -7 14 -29 32 -70 36 -78 7z"/>
<path d="M820 757 c0 -3 12 -12 26 -22 15 -9 23 -12 20 -6 -7 11 -46 35 -46
28z"/>
<path d="M718 743 c-10 -3 -18 -12 -18 -20 0 -9 -8 -22 -17 -29 -32 -23 -6
-25 33 -3 52 30 50 28 33 43 -8 7 -22 11 -31 9z"/>
<path d="M816 701 c-11 -12 -15 -25 -10 -32 19 -32 40 -49 59 -49 19 1 19 1 1
15 -10 8 -16 20 -13 28 3 7 -1 23 -7 35 -12 23 -12 23 -30 3z"/>
<path d="M902 704 c10 -10 20 -16 22 -13 3 3 -5 11 -17 18 -21 13 -21 12 -5
-5z"/>
<path d="M952 682 c16 -36 32 -54 19 -21 -5 15 -8 29 -5 32 3 2 -2 7 -10 10
-13 5 -13 2 -4 -21z"/>
<path d="M1034 649 c-3 -6 -1 -16 4 -21 8 -8 11 -5 9 11 -1 24 -3 25 -13 10z"/>
<path d="M533 615 c0 -11 4 -12 14 -4 7 6 13 13 13 15 0 2 -6 4 -13 4 -8 0
-14 -7 -14 -15z"/>
<path d="M620 626 c0 -10 53 -55 73 -61 9 -4 15 -11 12 -16 -4 -5 0 -9 7 -10
7 0 3 -4 -10 -10 -13 -5 -20 -13 -17 -19 6 -9 -8 -14 -27 -11 -5 0 -8 -6 -8
-14 0 -7 -8 -19 -17 -24 -16 -9 -15 -10 5 -11 13 0 20 4 17 10 -3 6 3 10 14
10 12 0 21 4 21 9 0 5 9 7 20 4 22 -6 26 6 10 25 -7 9 -7 9 2 2 17 -14 25 -12
25 5 0 8 -4 12 -9 9 -4 -3 -8 -1 -8 3 0 10 73 43 94 43 8 0 17 4 20 8 3 5 -17
9 -44 11 -61 2 -103 12 -162 36 -10 4 -18 4 -18 1z"/>
<path d="M530 529 c-12 -22 7 -34 63 -38 42 -3 69 13 60 35 -4 11 -8 10 -22
-4 -9 -10 -12 -13 -8 -6 10 16 -9 28 -51 30 -23 1 -36 -4 -42 -17z m70 -13 c0
-11 -19 -15 -25 -6 -3 5 1 10 9 10 9 0 16 -2 16 -4z"/>
<path d="M760 490 c-12 -8 -12 -10 3 -16 10 -3 21 -4 24 0 4 3 0 6 -8 6 -11 0
-11 2 1 10 8 5 11 10 5 10 -5 0 -17 -4 -25 -10z"/>
<path d="M7 358 c11 -18 11 -30 1 -50 -8 -16 -3 -18 37 -18 34 0 44 3 38 13
-10 16 -10 39 1 55 6 8 2 12 -12 12 -15 0 -20 -5 -16 -15 4 -10 0 -15 -11 -15
-11 0 -15 5 -11 15 4 10 -1 15 -15 15 -14 0 -18 -4 -12 -12z m53 -49 c0 -5 -7
-9 -15 -9 -15 0 -20 12 -9 23 8 8 24 -1 24 -14z"/>
<path d="M105 330 c0 -32 4 -40 19 -40 13 0 16 4 10 13 -11 15 -11 38 -1 55 6
8 2 12 -10 12 -14 0 -18 -8 -18 -40z"/>
<path d="M157 358 c11 -18 11 -30 1 -51 -8 -16 1 -17 156 -16 91 0 164 4 163
7 -1 4 3 7 8 7 5 0 9 -3 8 -7 -2 -5 6 -8 16 -8 19 0 19 1 0 40 -11 22 -22 40
-25 40 -3 0 -12 -17 -20 -37 -12 -29 -18 -33 -26 -22 -7 11 -11 11 -15 2 -2
-7 -12 -13 -20 -13 -11 0 -14 9 -11 35 3 30 1 35 -17 35 -11 0 -15 -4 -10 -8
6 -4 12 -19 13 -34 5 -43 -30 -37 -51 8 -19 40 -32 38 -40 -6 -5 -22 -12 -30
-28 -30 -18 0 -21 5 -17 35 5 40 -13 48 -30 13 l-11 -23 -7 23 c-4 13 -14 22
-26 22 -13 0 -17 -4 -11 -12z m163 -48 c0 -5 -8 -10 -17 -10 -15 0 -16 2 -3
10 19 12 20 12 20 0z"/>
<path d="M535 344 c9 -14 14 -32 11 -40 -3 -9 1 -14 14 -14 13 0 18 5 14 15
-4 8 1 26 10 40 l16 25 -41 0 -41 0 17 -26z m35 6 c0 -5 -4 -10 -10 -10 -5 0
-10 5 -10 10 0 6 5 10 10 10 6 0 10 -4 10 -10z"/>
<path d="M607 330 c-15 -38 -15 -40 4 -40 11 0 17 4 14 10 -3 5 -1 18 5 27 11
17 11 17 6 1 -3 -10 -1 -18 5 -18 6 0 7 -4 4 -10 -4 -6 9 -10 33 -10 37 0 39
2 36 28 l-4 27 12 -27 c7 -16 18 -28 26 -28 12 0 12 3 1 17 -12 14 -12 16 0 9
9 -6 12 -5 9 5 -3 8 -1 22 4 32 7 14 4 17 -13 17 -17 0 -19 -3 -10 -14 8 -9 8
-16 2 -20 -5 -4 -12 3 -16 14 -4 12 -15 20 -28 20 -15 0 -18 -3 -9 -8 6 -5 11
-20 10 -35 -3 -39 -31 -34 -47 8 -7 19 -16 35 -20 35 -4 0 -15 -18 -24 -40z"/>
<path d="M858 354 c11 -19 4 -54 -9 -54 -5 0 -8 3 -6 8 1 4 -2 8 -8 10 -5 1
-10 -4 -10 -10 0 -8 17 -14 47 -15 26 -1 47 2 45 6 -1 5 3 8 8 8 6 -1 9 -5 8
-9 -2 -5 6 -8 16 -8 19 0 19 1 -1 42 -19 39 -21 41 -34 23 -8 -10 -14 -24 -14
-31 0 -7 -5 -16 -11 -20 -8 -5 -10 4 -7 30 3 30 1 36 -15 36 -14 0 -16 -4 -9
-16z"/>
<path d="M968 330 c19 -44 37 -52 45 -17 2 12 8 30 12 40 5 12 3 17 -9 17 -9
0 -15 -3 -15 -7 1 -5 1 -17 0 -28 -1 -18 -2 -19 -12 -2 -5 9 -7 22 -4 27 3 6
-3 10 -14 10 -19 0 -19 -1 -3 -40z"/>
<path d="M1037 330 l-15 -40 46 1 c26 0 42 3 35 5 -7 3 -17 21 -23 40 -6 19
-15 34 -19 34 -4 0 -15 -18 -24 -40z m28 0 c3 -5 1 -10 -4 -10 -6 0 -11 5 -11
10 0 6 2 10 4 10 3 0 8 -4 11 -10z m2 -26 c-3 -3 -12 -4 -19 -1 -8 3 -5 6 6 6
11 1 17 -2 13 -5z"/>
<path d="M334 225 c-3 -14 -4 -32 0 -40 6 -17 47 -20 63 -4 8 8 13 8 17 0 10
-15 41 -14 55 3 16 19 -3 66 -28 66 -22 0 -45 -25 -36 -40 3 -5 -1 -10 -9 -10
-9 0 -16 -4 -16 -10 0 -16 -27 -12 -34 5 -7 18 2 45 15 45 5 0 12 -7 16 -16 4
-12 8 -13 14 -3 11 19 2 29 -26 29 -18 0 -26 -7 -31 -25z m121 -15 c0 -27 -22
-39 -31 -16 -8 22 3 49 19 43 6 -2 12 -14 12 -27z"/>
<path d="M485 209 c0 -31 4 -39 19 -39 16 0 17 2 5 17 -12 14 -12 16 1 11 17
-5 40 14 40 33 0 18 11 4 14 -18 2 -10 -1 -24 -7 -30 -7 -10 -2 -13 19 -12 16
0 23 3 17 6 -7 2 -13 12 -13 21 0 15 2 15 10 2 9 -13 11 -13 20 0 5 8 10 21
10 28 0 6 5 12 11 12 7 0 10 -14 7 -35 l-4 -35 73 0 c58 0 73 3 73 15 0 8 -4
15 -10 15 -5 0 -10 7 -10 16 0 11 -5 14 -17 9 -14 -5 -15 -4 -6 6 10 10 16 9
29 -2 15 -12 17 -12 12 1 -2 8 -18 16 -34 18 -29 3 -30 2 -26 -33 3 -21 0 -35
-7 -35 -6 0 -11 5 -11 11 0 8 -5 7 -15 -1 -13 -11 -18 -11 -28 0 -10 10 -9 12
6 7 11 -4 17 -1 17 9 0 8 5 12 10 9 6 -3 10 3 10 14 0 20 -5 21 -107 20 l-108
-1 0 -39z m49 23 c2 -4 -4 -9 -15 -9 -11 -1 -17 2 -14 8 7 11 22 12 29 1z m69
-6 c4 -10 1 -13 -9 -9 -15 6 -19 23 -5 23 5 0 11 -7 14 -14z m77 10 c0 -3 -4
-8 -10 -11 -5 -3 -10 -1 -10 4 0 6 5 11 10 11 6 0 10 -2 10 -4z m80 -46 c12
-8 11 -10 -7 -10 -13 0 -23 5 -23 10 0 13 11 13 30 0z"/>
</g>
</svg>
